# xmcd
#
# Track frame offsets:
#	182
#	18100
#	52982
#
# Disc length: 954 seconds
# Revision: 4
# Processed by: cddbd v1.5.2PL0 Copyright (c) Steve Scherf et al.
# Submitted via: dBpowerAMP V12.0
#
DISCID=1603b803
DTITLE=Bobby Brown - Every Little Step [CD Single)
DYEAR=1989
DGENRE=R&B
TTITLE0=Every Little Step
TTITLE1=Every Little Step (Extended Version)
TTITLE2=Every Little Step (With Rap)
EXTD=
EXTT0=
EXTT1=
EXTT2=
PLAYORDER=
